<?xml version="1.0" standalone="no"?>
<!DOCTYPE svg PUBLIC "-//W3C//DTD SVG 20010904//EN"
 "http://www.w3.org/TR/2001/REC-SVG-20010904/DTD/svg10.dtd">
<svg version="1.0" xmlns="http://www.w3.org/2000/svg"
 width="263.000000pt" height="263.000000pt" viewBox="0 0 263.000000 263.000000"
 preserveAspectRatio="xMidYMid meet">
<metadata>
Created by potrace 1.14, written by Peter Selinger 2001-2017
</metadata>
<g transform="translate(0.000000,263.000000) scale(0.100000,-0.100000)"
fill="#000000" stroke="none">
<path d="M0 1315 l0 -1315 1315 0 1315 0 0 1315 0 1315 -1315 0 -1315 0 0
-1315z m1215 561 c8 -24 6 -31 -14 -47 -21 -17 -42 -19 -227 -19 l-204 0 0
-540 c0 -527 0 -540 -20 -560 -24 -24 -43 -25 -64 -4 -14 14 -16 78 -16 560
l0 544 -206 0 c-122 0 -213 4 -225 10 -22 12 -26 59 -7 78 9 9 127 12 492 10
l481 -3 10 -29z m970 6 c90 -41 126 -92 145 -205 14 -79 4 -107 -39 -107 -37
0 -47 14 -55 74 -10 76 -34 118 -86 144 -44 22 -52 23 -275 20 -219 -3 -232
-4 -266 -26 -60 -37 -88 -138 -70 -253 12 -71 32 -105 82 -134 31 -18 59 -21
274 -26 160 -4 253 -11 279 -20 64 -22 133 -94 157 -164 18 -50 20 -78 17
-170 -6 -164 -45 -239 -152 -287 -48 -22 -65 -23 -291 -26 -204 -3 -250 -1
-305 14 -117 32 -190 135 -190 270 0 44 4 55 21 65 38 20 67 -2 74 -58 15
-110 41 -152 113 -180 40 -15 78 -18 267 -18 215 0 221 1 270 25 38 19 55 36
73 70 21 41 23 56 20 155 -4 128 -19 164 -83 198 -37 20 -61 22 -280 27 -222
6 -244 8 -292 29 -115 51 -158 141 -151 320 3 94 7 112 33 159 33 61 68 89
140 114 43 16 82 18 285 16 221 -3 238 -4 285 -26z"/>
</g>
</svg>
